{
  "extensionsUsed": [
    "KHR_materials_transmission",
    "KHR_materials_clearcoat",
    "KHR_materials_ior",
    "KHR_materials_specular",
    "KHR_materials_emissive_strength",
    "KHR_texture_transform"
  ],
  "accessors": [
    {
      "bufferView": 0,
      "componentType": 5126,
      "count": 8385,
      "type": "VEC3",
      "max": [
        60.09191,
        59.935726,
        61.21504
      ],
      "min": [
        -59.77954,
        -59.935726,
        -58.656414
      ]
    },
    {
      "bufferView": 1,
      "componentType": 5125,
      "count": 48384,
      "type": "SCALAR",
      "max": [
        8384.0
      ],
      "min": [
        0.0
      ]
    },
    {
      "bufferView": 2,
      "componentType": 5126,
      "count": 8385,
      "type": "VEC3",
      "max": [
        1.0,
        1.0,
        1.0
      ],
      "min": [
        -1.0,
        -1.0,
        -1.0
      ]
    },
    {
      "bufferView": 3,
      "componentType": 5126,
      "count": 8385,
      "type": "VEC2",
      "max": [
        1.0,
        -0.0
      ],
      "min": [
        0.0,
        -1.0
      ]
    }
  ],
  "asset": {
    "version": "2.0"
  },
  "buffers": [
    {
      "uri": "data:application/octet-stream;base64,",
      "byteLength": 100620
    },
    {
      "uri": "data:application/octet-stream;base64,",
      "byteLength": 193536
    },
    {
      "uri": "data:application/octet-stream;base64,",
      "byteLength": 100620
    },
    {
      "uri": "data:application/octet-stream;base64,",
      "byteLength": 67080
    }
  ],
  "bufferViews": [
    {
      "buffer": 0,
      "byteLength": 100620,
      "target": 34962
    },
    {
      "buffer": 1,
      "byteLength": 193536,
      "target": 34963
    },
    {
      "buffer": 2,
      "byteLength": 100620,
      "target": 34962
    },
    {
      "buffer": 3,
      "byteLength": 67080,
      "target": 34962
    }
  ],
  "materials": [
    {
      "name": "Paint",
      "extensions": {
        "KHR_materials_transmission": {},
        "KHR_materials_clearcoat": {},
        "KHR_materials_ior": {
          "ior": 1.0
        },
        "KHR_materials_specular": {
          "specularFactor": 0.5,
          "specularColorFactor": [
            1.0,
            1.0,
            1.0
          ]
        }
      },
      "pbrMetallicRoughness": {
        "baseColorFactor": [
          0.33922336,
          0.0,
          0.0,
          1.0
        ],
        "metallicFactor": 0.0,
        "roughnessFactor": 0.0
      }
    }
  ],
  "meshes": [
    {
      "primitives": [
        {
          "attributes": {
            "POSITION": 0,
            "NORMAL": 2,
            "TEXCOORD_0": 3
          },
          "indices": 1,
          "material": 0
        }
      ]
    }
  ],
  "nodes": [
    {
      "mesh": 0
    }
  ],
  "samplers": [
    {
      "magFilter": 9729,
      "minFilter": 9729
    }
  ],
  "scene": 0,
  "scenes": [
    {
      "nodes": [
        0
      ],
      "extensions": {}
    }
  ],
  "extensions": {}
}